<svg width="22" height="22" viewBox="0 0 22 22" fill="none" xmlns="http://www.w3.org/2000/svg">
<path d="M5.43949 2.83408C5.70916 1.72197 7.29084 1.72197 7.56051 2.83408L8.30252 5.89413C8.3988 6.29118 8.70882 6.6012 9.10587 6.69748L12.1659 7.43949C13.278 7.70916 13.278 9.29084 12.1659 9.56051L9.10587 10.3025C8.70882 10.3988 8.3988 10.7088 8.30252 11.1059L7.56051 14.1659C7.29084 15.278 5.70916 15.278 5.43949 14.1659L4.69748 11.1059C4.6012 10.7088 4.29118 10.3988 3.89413 10.3025L0.834083 9.56051C-0.278027 9.29084 -0.278028 7.70916 0.834082 7.43949L3.89413 6.69748C4.29118 6.6012 4.6012 6.29118 4.69748 5.89413L5.43949 2.83408Z" fill="#B5FF00"/>
<path d="M14.3474 13.5133C14.5133 12.8289 15.4867 12.8289 15.6526 13.5133L16.1092 15.3964C16.1685 15.6407 16.3593 15.8315 16.6036 15.8908L18.4867 16.3474C19.1711 16.5133 19.1711 17.4867 18.4867 17.6526L16.6036 18.1092C16.3593 18.1685 16.1685 18.3593 16.1092 18.6036L15.6526 20.4867C15.4867 21.1711 14.5133 21.1711 14.3474 20.4867L13.8908 18.6036C13.8315 18.3593 13.6407 18.1685 13.3964 18.1092L11.5133 17.6526C10.8289 17.4867 10.8289 16.5133 11.5133 16.3474L13.3964 15.8908C13.6407 15.8315 13.8315 15.6407 13.8908 15.3964L14.3474 13.5133Z" fill="#B5FF00"/>
<path d="M17.5717 2.71184C17.6806 2.26272 18.3194 2.26272 18.4283 2.71184L18.7279 3.94763C18.7668 4.10798 18.892 4.23318 19.0524 4.27206L20.2882 4.57172C20.7373 4.68062 20.7373 5.31938 20.2882 5.42828L19.0524 5.72794C18.892 5.76682 18.7668 5.89202 18.7279 6.05237L18.4283 7.28816C18.3194 7.73728 17.6806 7.73728 17.5717 7.28816L17.2721 6.05237C17.2332 5.89202 17.108 5.76682 16.9476 5.72794L15.7118 5.42828C15.2627 5.31938 15.2627 4.68062 15.7118 4.57172L16.9476 4.27206C17.108 4.23318 17.2332 4.10798 17.2721 3.94763L17.5717 2.71184Z" fill="#B5FF00"/>
<path fill-rule="evenodd" clip-rule="evenodd" d="M18 2.93109L17.7554 3.93972C17.6577 4.34288 17.3429 4.65766 16.9397 4.75542L15.9311 5L16.9397 5.24458C17.3429 5.34234 17.6577 5.65712 17.7554 6.06029L18 7.06891L18.2446 6.06029C18.3423 5.65712 18.6571 5.34234 19.0603 5.24458L20.0689 5L19.0603 4.75542C18.6571 4.65766 18.3423 4.34288 18.2446 3.93972L18 2.93109ZM18.4895 2.38496C18.365 1.87168 17.635 1.87168 17.5105 2.38496L17.1681 3.79729C17.1236 3.98055 16.9805 4.12363 16.7973 4.16807L15.385 4.51054C14.8717 4.635 14.8717 5.365 15.385 5.48947L16.7973 5.83193C16.9805 5.87637 17.1236 6.01945 17.1681 6.20271L17.5105 7.61504C17.635 8.12832 18.365 8.12832 18.4895 7.61504L18.8319 6.20271C18.8764 6.01945 19.0195 5.87637 19.2027 5.83193L20.615 5.48947C21.1283 5.365 21.1283 4.635 20.615 4.51054L19.2027 4.16807C19.0195 4.12363 18.8764 3.98055 18.8319 3.79729L18.4895 2.38496Z" fill="#B5FF00"/>
<path d="M6 22C5.44772 22 5 21.5523 5 21C5 20.4477 5.44772 20 6 20C6.55228 20 7 20.4477 7 21C7 21.5523 6.55228 22 6 22Z" fill="#B5FF00"/>
<path d="M1 18C0.447715 18 -2.41411e-08 17.5523 0 17C2.41411e-08 16.4477 0.447715 16 1 16C1.55228 16 2 16.4477 2 17C2 17.5523 1.55228 18 1 18Z" fill="#B5FF00"/>
<path d="M12 2C11.4477 2 11 1.55228 11 1C11 0.447715 11.4477 -2.41411e-08 12 0C12.5523 2.41411e-08 13 0.447715 13 1C13 1.55228 12.5523 2 12 2Z" fill="#B5FF00"/>
<path d="M21 13C20.4477 13 20 12.5523 20 12C20 11.4477 20.4477 11 21 11C21.5523 11 22 11.4477 22 12C22 12.5523 21.5523 13 21 13Z" fill="#B5FF00"/>
</svg>
